<svg width="185" height="60" viewBox="0 0 185 60" fill="none" xmlns="http://www.w3.org/2000/svg">
<path d="M16.0736 1.61816C16.2158 1.45272 16.3371 1.31318 16.4352 1.20117H169.671C169.76 1.30896 169.869 1.44073 169.995 1.59513C170.391 2.08208 170.96 2.79378 171.643 3.68786C173.009 5.47707 174.83 7.99136 176.649 10.8927C180.321 16.7509 183.851 23.9814 183.843 29.9745C183.836 35.9468 180.306 43.1482 176.638 48.982C174.821 51.8713 173.003 54.3748 171.639 56.1562C170.957 57.0464 170.39 57.755 169.994 58.2398C169.869 58.3932 169.761 58.5242 169.672 58.6314H16.4223C16.3242 58.524 16.2026 58.3899 16.06 58.2307C15.6403 57.7623 15.0387 57.0767 14.3158 56.2132C12.8693 54.4851 10.9418 52.0499 9.01634 49.2201C5.12749 43.5051 1.39404 36.3902 1.39404 30.2877C1.39404 24.1791 5.13265 16.8766 9.02455 10.9716C10.9516 8.04783 12.8804 5.51889 14.328 3.72056C15.0514 2.82194 15.6535 2.10712 16.0736 1.61816Z" stroke="#B12E0A" stroke-width="2"/>
<path d="M19.046 6.52959C19.1194 6.43773 19.1854 6.35578 19.2434 6.28418H167.392C167.434 6.34465 167.48 6.41146 167.531 6.48439C167.808 6.88673 168.207 7.47523 168.686 8.21481C169.644 9.6949 170.921 11.7753 172.197 14.1759C174.771 19.0223 177.246 25.0045 177.239 29.9646C177.232 34.908 174.757 40.8664 172.186 45.6926C170.912 48.0833 169.638 50.1547 168.682 51.6284C168.204 52.3648 167.807 52.9507 167.53 53.3513C167.48 53.4234 167.434 53.4895 167.392 53.5494H19.2434C19.1854 53.4778 19.1194 53.3958 19.046 53.304C18.73 52.9086 18.2768 52.3297 17.732 51.6011C16.6418 50.1428 15.1891 48.0898 13.7378 45.7106C10.8049 40.9021 7.99756 34.9499 7.99756 29.9168C7.99756 24.8837 10.8049 18.9315 13.7378 14.123C15.1891 11.7438 16.6418 9.69075 17.732 8.23247C18.2768 7.50384 18.73 6.925 19.046 6.52959Z" fill="#B12E0A" stroke="#B12E0A" stroke-width="2"/>
</svg>
