<svg width="113" height="37" viewBox="0 0 113 37" fill="none" xmlns="http://www.w3.org/2000/svg">
<path d="M10.3756 1.96741C10.4112 1.92606 10.4445 1.88742 10.4756 1.85156H103.045C103.069 1.88111 103.095 1.91244 103.121 1.9455C103.36 2.23802 103.702 2.66641 104.113 3.20502C104.937 4.28329 106.034 5.79799 107.129 7.54472C109.353 11.0937 111.436 15.3949 111.432 18.9079C111.428 22.4084 109.345 26.6923 107.122 30.2265C106.029 31.9659 104.934 33.4741 104.111 34.5477C103.701 35.084 103.359 35.5105 103.121 35.8017C103.095 35.8344 103.069 35.8653 103.045 35.8945H10.4628C10.4315 35.8599 10.3978 35.8225 10.362 35.7825C10.11 35.5013 9.74808 35.0888 9.31285 34.5689C8.44148 33.528 7.28099 32.0616 6.12243 30.359C3.76745 26.8981 1.56787 22.6701 1.56787 19.0983C1.56787 15.5204 3.77261 11.1778 6.13064 7.60012C7.29071 5.84 8.45262 4.31652 9.32502 3.23275C9.76079 2.69141 10.1232 2.26113 10.3756 1.96741Z" stroke="#F1EFE9" stroke-width="2"/>
<path d="M12.1873 4.93458C12.1875 4.93425 12.1878 4.93392 12.188 4.93359H101.642C101.806 5.17266 102.033 5.50886 102.302 5.92482C102.879 6.81557 103.647 8.06731 104.414 9.51085C105.972 12.443 107.431 15.997 107.427 18.9011C107.423 21.7955 105.964 25.3354 104.408 28.2553C103.642 29.6928 102.876 30.9392 102.3 31.8261C102.032 32.2395 101.806 32.5738 101.642 32.8117H12.188C12.1878 32.8114 12.1875 32.8111 12.1873 32.8108C11.998 32.5739 11.7257 32.2262 11.3981 31.788C10.7423 30.9107 9.86863 29.6761 8.99653 28.2463C7.22183 25.3367 5.57275 21.8079 5.57275 18.8727C5.57275 15.9374 7.22183 12.4086 8.99653 9.49904C9.86863 8.06926 10.7423 6.83459 11.3981 5.95729C11.7257 5.51916 11.998 5.17146 12.1873 4.93458Z" fill="#F1EFE9" stroke="#F1EFE9" stroke-width="2"/>
</svg>
