<svg width="233" height="60" viewBox="0 0 233 60" fill="none" xmlns="http://www.w3.org/2000/svg">
<path d="M19.8821 2.06893C20.1067 1.86074 20.2899 1.69346 20.4259 1.57031H213.163C213.289 1.69094 213.455 1.85098 213.656 2.04766C214.155 2.5352 214.869 3.24747 215.727 4.1421C217.444 5.93255 219.73 8.44762 222.013 11.3491C224.299 14.2538 226.566 17.5257 228.256 20.8302C229.952 24.1476 231.027 27.419 231.022 30.3433C231.018 33.2573 229.939 36.5165 228.24 39.8211C226.549 43.1127 224.283 46.3713 222 49.2639C219.719 52.1533 217.436 54.6576 215.722 56.4403C214.866 57.3311 214.153 58.0403 213.655 58.5257C213.455 58.7213 213.289 58.8805 213.164 59.0005H20.4136C20.2774 58.8824 20.0931 58.7211 19.8667 58.5198C19.3389 58.0506 18.5827 57.3642 17.6744 56.4998C15.8565 54.7699 13.4354 52.3331 11.0173 49.5023C8.59642 46.6683 6.19648 43.4602 4.4062 40.1879C2.6093 36.9036 1.4707 33.634 1.4707 30.6569C1.4707 27.6774 2.61071 24.3598 4.4103 21.0022C6.20274 17.6579 8.60506 14.3556 11.0275 11.4279C13.4471 8.50346 15.8696 5.97331 17.6884 4.17345C18.5973 3.27412 19.3539 2.55859 19.8821 2.06893Z" stroke="#B12E0A" stroke-width="2"/>
</svg>
