<svg width="172" height="50" viewBox="0 0 172 50" fill="none" xmlns="http://www.w3.org/2000/svg">
<path d="M12.7545 1.62237C12.8279 1.5305 12.8939 1.44855 12.9519 1.37695H161.1C161.142 1.43742 161.189 1.50423 161.239 1.57717C161.517 1.9795 161.915 2.56801 162.394 3.30758C163.353 4.78767 164.63 6.86802 165.905 9.26869C168.48 14.115 170.955 20.0973 170.948 25.0574C170.941 30.0008 168.466 35.9592 165.894 40.7854C164.621 43.1761 163.347 45.2475 162.391 46.7212C161.913 47.4576 161.515 48.0435 161.238 48.4441C161.188 48.5162 161.142 48.5823 161.101 48.6422H12.9519C12.8939 48.5706 12.8279 48.4886 12.7545 48.3967C12.4385 48.0013 11.9853 47.4225 11.4405 46.6939C10.3503 45.2356 8.89757 43.1826 7.44634 40.8033C4.51338 35.9949 1.70605 30.0427 1.70605 25.0096C1.70605 19.9764 4.51338 14.0243 7.44634 9.21577C8.89757 6.83653 10.3503 4.78352 11.4405 3.32524C11.9853 2.59662 12.4385 2.01777 12.7545 1.62237Z" stroke="#B12E0A" stroke-width="2"/>
</svg>
